<svg width="44" height="44" viewBox="0 0 44 44" fill="none" xmlns="http://www.w3.org/2000/svg">
<path d="M33 14.6667C33 11.7494 31.8411 8.95147 29.7782 6.88857C27.7153 4.82567 24.9174 3.66675 22 3.66675C19.0826 3.66675 16.2847 4.82567 14.2218 6.88857C12.1589 8.95147 11 11.7494 11 14.6667C11 27.5001 5.5 31.1667 5.5 31.1667H38.5C38.5 31.1667 33 27.5001 33 14.6667Z" stroke="black" stroke-width="2" stroke-linecap="round" stroke-linejoin="round"/>
<path d="M27.28 33.4399C26.7434 34.3649 25.9732 35.1327 25.0466 35.6665C24.1199 36.2002 23.0693 36.4811 22 36.4811C20.9306 36.4811 19.88 36.2002 18.9534 35.6665C18.0267 35.1327 17.2565 34.3649 16.72 33.4399" stroke="black" stroke-width="2" stroke-linecap="round" stroke-linejoin="round"/>
</svg>
