<svg width="21" height="22" viewBox="0 0 21 22" fill="none" xmlns="http://www.w3.org/2000/svg">
<path d="M17.8332 1.3335H3.24984C2.09924 1.3335 1.1665 2.26624 1.1665 3.41683V18.0002C1.1665 19.1508 2.09924 20.0835 3.24984 20.0835H17.8332C18.9838 20.0835 19.9165 19.1508 19.9165 18.0002V3.41683C19.9165 2.26624 18.9838 1.3335 17.8332 1.3335Z" stroke="#FFF200" stroke-width="2" stroke-linecap="round" stroke-linejoin="round"/>
<path d="M5.41967 13.07C4.74767 13.07 4.22267 12.9067 3.84467 12.58C3.46667 12.2487 3.266 11.7797 3.24267 11.173C3.238 11.0377 3.23567 10.823 3.23567 10.529C3.23567 10.235 3.238 10.0203 3.24267 9.885C3.266 9.29233 3.469 8.835 3.85167 8.513C4.239 8.191 4.76167 8.03 5.41967 8.03C5.863 8.03 6.248 8.10233 6.57467 8.247C6.906 8.39167 7.158 8.576 7.33067 8.8C7.508 9.024 7.60133 9.255 7.61067 9.493C7.61067 9.535 7.59433 9.57 7.56167 9.598C7.53367 9.626 7.49867 9.64 7.45667 9.64H6.43467C6.388 9.64 6.35067 9.633 6.32267 9.619C6.29467 9.605 6.27133 9.57933 6.25267 9.542C6.192 9.40667 6.09633 9.29 5.96567 9.192C5.835 9.08933 5.653 9.038 5.41967 9.038C4.86433 9.038 4.57267 9.332 4.54467 9.92C4.54 10.0507 4.53767 10.2537 4.53767 10.529C4.53767 10.7997 4.54 11.0027 4.54467 11.138C4.57267 11.754 4.87133 12.062 5.44067 12.062C5.716 12.062 5.93533 11.992 6.09867 11.852C6.26667 11.7073 6.35067 11.488 6.35067 11.194V11.061H5.69267C5.64133 11.061 5.59933 11.0447 5.56667 11.012C5.534 10.9747 5.51767 10.9303 5.51767 10.879V10.361C5.51767 10.3097 5.534 10.2677 5.56667 10.235C5.59933 10.1977 5.64133 10.179 5.69267 10.179H7.45667C7.508 10.179 7.55 10.1977 7.58267 10.235C7.61533 10.2677 7.63167 10.3097 7.63167 10.361V11.159C7.63167 11.5557 7.54067 11.8987 7.35867 12.188C7.17667 12.4727 6.91767 12.692 6.58167 12.846C6.25033 12.9953 5.863 13.07 5.41967 13.07ZM10.1 13C10.0533 13 10.0113 12.9837 9.97399 12.951C9.94132 12.9137 9.92499 12.8717 9.92499 12.825V8.275C9.92499 8.22367 9.94132 8.18167 9.97399 8.149C10.0113 8.11633 10.0533 8.1 10.1 8.1H11.038C11.0893 8.1 11.1313 8.11633 11.164 8.149C11.2013 8.18167 11.22 8.22367 11.22 8.275V12.825C11.22 12.8763 11.2013 12.9183 11.164 12.951C11.1313 12.9837 11.0893 13 11.038 13H10.1ZM13.8598 13C13.8131 13 13.7711 12.9837 13.7338 12.951C13.7011 12.9137 13.6848 12.8717 13.6848 12.825V8.275C13.6848 8.22367 13.7011 8.18167 13.7338 8.149C13.7711 8.11633 13.8131 8.1 13.8598 8.1H17.0798C17.1311 8.1 17.1731 8.11633 17.2058 8.149C17.2384 8.18167 17.2548 8.22367 17.2548 8.275V8.982C17.2548 9.02867 17.2384 9.07067 17.2058 9.108C17.1731 9.14067 17.1311 9.157 17.0798 9.157H14.9168V10.186H16.9398C16.9911 10.186 17.0331 10.2047 17.0658 10.242C17.0984 10.2747 17.1148 10.3167 17.1148 10.368V11.068C17.1148 11.1147 17.0984 11.1567 17.0658 11.194C17.0331 11.2267 16.9911 11.243 16.9398 11.243H14.9168V12.825C14.9168 12.8763 14.9004 12.9183 14.8678 12.951C14.8351 12.9837 14.7931 13 14.7418 13H13.8598Z" fill="#FFF200"/>
</svg>
