<svg width="19" height="19" viewBox="0 0 19 19" fill="none" xmlns="http://www.w3.org/2000/svg">
<g clip-path="url(#clip0)">
<path d="M16.4545 3.89634C16.0631 3.51782 15.5983 3.21756 15.0868 3.0127C14.5753 2.80783 14.0271 2.70239 13.4734 2.70239C12.9197 2.70239 12.3715 2.80783 11.8599 3.0127C11.3484 3.21756 10.8837 3.51782 10.4923 3.89634L9.67997 4.68152L8.86764 3.89634C8.077 3.13212 7.00467 2.70279 5.88655 2.70279C4.76842 2.70279 3.6961 3.13212 2.90546 3.89634C2.11483 4.66055 1.67065 5.69705 1.67065 6.77782C1.67065 7.85858 2.11483 8.89508 2.90546 9.6593L3.71779 10.4445L9.67997 16.2074L15.6421 10.4445L16.4545 9.6593C16.8461 9.28096 17.1567 8.83176 17.3687 8.33734C17.5806 7.84293 17.6897 7.31299 17.6897 6.77782C17.6897 6.24264 17.5806 5.71271 17.3687 5.2183C17.1567 4.72388 16.8461 4.27468 16.4545 3.89634V3.89634Z" stroke="#787878" stroke-width="2" stroke-linecap="round" stroke-linejoin="round"/>
</g>
<defs>
<clipPath id="clip0">
<rect width="18.3923" height="17.7778" fill="white" transform="translate(0.483887 0.481445)"/>
</clipPath>
</defs>
</svg>
