<svg width="19" height="18" viewBox="0 0 19 18" fill="none" xmlns="http://www.w3.org/2000/svg">
<path d="M16.0933 8.51849C16.0959 9.49617 15.8596 10.4606 15.4036 11.3333C14.8629 12.379 14.0316 13.2586 13.003 13.8735C11.9743 14.4884 10.7888 14.8143 9.57937 14.8148C8.56789 14.8173 7.57009 14.5889 6.66725 14.1481L2.29907 15.5555L3.75513 11.3333C3.2991 10.4606 3.06278 9.49617 3.06542 8.51849C3.06589 7.34942 3.40308 6.20356 4.03923 5.20926C4.67538 4.21497 5.58536 3.4115 6.66725 2.88886C7.57009 2.44806 8.56789 2.21964 9.57937 2.22219H9.96254C11.5599 2.30737 13.0686 2.95905 14.1998 4.05246C15.331 5.14586 16.0052 6.60415 16.0933 8.14812V8.51849Z" stroke="#787878" stroke-width="2" stroke-linecap="round" stroke-linejoin="round"/>
</svg>
