<svg width="40" height="44" viewBox="0 0 40 44" fill="none" xmlns="http://www.w3.org/2000/svg">
<path d="M28.4517 7.92148C28.4517 11.5688 24.7733 14.843 19.8037 14.843C14.8341 14.843 11.1558 11.5688 11.1558 7.92148C11.1558 4.27422 14.8341 1 19.8037 1C24.7733 1 28.4517 4.27422 28.4517 7.92148Z" stroke="black" stroke-width="2"/>
<mask id="path-2-inside-1" fill="white">
<path d="M38.6074 30.7974C39.1597 30.7974 39.6132 30.3483 39.5508 29.7995C39.1944 26.663 37.1665 23.7015 33.8071 21.4619C30.0931 18.9859 25.056 17.595 19.8037 17.595C14.5514 17.595 9.51429 18.9859 5.80037 21.4619C2.44089 23.7015 0.413054 26.663 0.0566077 29.7995C-0.005755 30.3483 0.447715 30.7974 1 30.7974L19.8037 30.7974H38.6074Z"/>
</mask>
<path d="M38.6074 30.7974C39.1597 30.7974 39.6132 30.3483 39.5508 29.7995C39.1944 26.663 37.1665 23.7015 33.8071 21.4619C30.0931 18.9859 25.056 17.595 19.8037 17.595C14.5514 17.595 9.51429 18.9859 5.80037 21.4619C2.44089 23.7015 0.413054 26.663 0.0566077 29.7995C-0.005755 30.3483 0.447715 30.7974 1 30.7974L19.8037 30.7974H38.6074Z" stroke="black" stroke-width="4" mask="url(#path-2-inside-1)"/>
</svg>
