<svg width="22" height="22" viewBox="0 0 22 22" fill="none" xmlns="http://www.w3.org/2000/svg">
<path d="M17.8611 2.23608H3.9722C3.01337 2.23608 2.23608 3.01337 2.23608 3.97219V7.44442C2.23608 8.40324 3.01337 9.18053 3.9722 9.18053H17.8611C18.8199 9.18053 19.5972 8.40324 19.5972 7.44442V3.97219C19.5972 3.01337 18.8199 2.23608 17.8611 2.23608Z" stroke="#FFF200" stroke-width="2" stroke-linecap="round" stroke-linejoin="round"/>
<path d="M17.8611 12.6528H3.9722C3.01337 12.6528 2.23608 13.4301 2.23608 14.3889V17.8612C2.23608 18.82 3.01337 19.5973 3.9722 19.5973H17.8611C18.8199 19.5973 19.5972 18.82 19.5972 17.8612V14.3889C19.5972 13.4301 18.8199 12.6528 17.8611 12.6528Z" stroke="#FFF200" stroke-width="2" stroke-linecap="round" stroke-linejoin="round"/>
<path d="M5.70825 5.70825H5.71693" stroke="#FFF200" stroke-width="2" stroke-linecap="round" stroke-linejoin="round"/>
<path d="M5.70825 16.125H5.71693" stroke="#FFF200" stroke-width="2" stroke-linecap="round" stroke-linejoin="round"/>
</svg>
